<?xml version="1.0" standalone="no"?>
<!DOCTYPE svg PUBLIC "-//W3C//DTD SVG 20010904//EN"
 "http://www.w3.org/TR/2001/REC-SVG-20010904/DTD/svg10.dtd">
<svg version="1.0" xmlns="http://www.w3.org/2000/svg"
 width="512.000000pt" height="512.000000pt" viewBox="0 0 512.000000 512.000000"
 preserveAspectRatio="xMidYMid meet">
<metadata>
Created by potrace 1.11, written by Peter Selinger 2001-2013
</metadata>
<g transform="translate(0.000000,512.000000) scale(0.100000,-0.100000)"
fill="#000000" stroke="none">
<path d="M1498 4573 c-9 -2 -24 -15 -33 -29 -19 -29 -31 -4 140 -289 176 -294
162 -263 131 -291 -14 -13 -30 -24 -36 -24 -5 0 -10 -4 -10 -9 0 -5 -13 -14
-30 -21 -16 -7 -30 -16 -30 -20 0 -3 -12 -13 -27 -21 -32 -16 -45 -25 -78 -56
-13 -13 -28 -23 -32 -23 -10 0 -203 -194 -203 -204 0 -3 -9 -17 -20 -29 -44
-47 -70 -82 -70 -94 0 -7 -5 -13 -10 -13 -6 0 -18 -18 -27 -40 -10 -22 -21
-40 -25 -40 -5 0 -8 -6 -8 -14 0 -7 -7 -19 -15 -26 -8 -7 -13 -16 -10 -20 3
-4 -1 -13 -9 -19 -13 -11 -28 -51 -25 -67 0 -4 -4 -10 -10 -14 -6 -3 -14 -17
-16 -30 -2 -13 -10 -27 -17 -32 -7 -4 -9 -8 -4 -8 5 0 4 -6 -1 -12 -6 -7 -14
-26 -18 -43 -9 -34 -10 -35 -18 -55 -3 -8 -9 -28 -13 -45 -8 -33 -9 -37 -21
-80 -5 -16 -9 -51 -9 -77 1 -27 -2 -48 -5 -48 -7 0 -8 -28 -11 -205 -1 -75 4
-143 17 -225 3 -19 7 -44 8 -55 1 -11 5 -22 9 -25 3 -3 8 -18 11 -35 3 -16 10
-42 16 -57 6 -16 8 -28 5 -28 -4 0 -1 -6 5 -14 10 -12 15 -28 25 -74 1 -7 8
-18 14 -24 7 -7 12 -20 12 -30 0 -10 5 -18 12 -18 6 0 8 -3 5 -6 -6 -6 78
-179 93 -194 3 -3 25 -34 50 -70 24 -36 48 -66 52 -68 4 -2 8 -8 8 -13 0 -11
36 -52 126 -143 82 -82 137 -129 205 -171 26 -16 48 -32 48 -35 -1 -3 2 -17 6
-32 7 -28 -21 -91 -37 -82 -4 3 -8 1 -8 -4 0 -5 -12 -8 -26 -6 -15 1 -28 -3
-31 -12 -3 -8 -11 -14 -19 -14 -7 0 -16 -11 -20 -25 -3 -14 -9 -25 -14 -25 -4
0 -15 -18 -25 -40 -10 -22 -22 -40 -27 -40 -4 0 -8 -9 -8 -20 0 -11 -4 -20
-10 -20 -5 0 -10 -7 -10 -15 0 -8 -4 -15 -10 -15 -5 0 -9 -3 -8 -7 1 -5 -15
-42 -34 -83 -65 -137 -77 -195 -43 -220 54 -41 95 -50 255 -55 63 -2 135 -7
160 -10 132 -18 1275 -18 1455 0 39 4 117 8 175 10 124 3 172 11 220 35 44 22
61 55 48 90 -5 14 -12 36 -14 50 -7 36 -126 275 -145 290 -4 3 -9 15 -13 27
-5 16 -20 26 -49 34 -67 18 -86 30 -92 60 -7 33 25 103 52 112 24 9 54 28 74
49 9 10 19 15 23 11 3 -3 6 -1 6 6 0 7 4 10 9 7 5 -4 11 -3 13 1 1 5 30 31 62
58 58 49 156 144 186 182 8 10 35 42 58 71 24 28 40 52 35 52 -4 0 0 5 10 11
9 5 17 17 17 24 0 8 5 15 10 15 6 0 10 5 10 12 0 6 11 26 25 44 14 18 25 39
25 47 0 9 3 17 8 19 6 2 43 72 47 88 0 3 11 27 24 55 13 27 25 56 26 65 2 8 4
17 5 20 1 3 2 8 1 13 0 4 4 7 10 7 6 0 9 6 6 14 -3 8 -3 17 1 20 3 4 7 13 9
21 4 20 7 32 23 85 7 25 15 61 16 80 2 19 6 55 10 80 9 70 8 331 -2 339 -5 3
-9 24 -9 46 1 22 -3 54 -8 70 -4 17 -11 44 -14 60 -3 17 -10 36 -15 43 -6 7
-8 15 -5 19 4 3 2 12 -4 20 -6 7 -8 13 -4 13 4 0 0 11 -9 25 -9 14 -14 25 -12
25 3 0 -2 17 -11 38 -33 78 -36 87 -39 101 -1 8 -8 17 -14 21 -7 4 -11 9 -9
11 5 9 -13 49 -22 49 -6 0 -7 5 -4 10 3 6 1 10 -5 10 -6 0 -8 5 -5 10 3 6 1
10 -4 10 -6 0 -11 5 -11 11 0 18 -92 152 -160 232 -55 65 -201 201 -267 249
-43 31 -92 69 -110 83 l-32 27 28 42 c15 22 85 138 156 256 71 118 132 217
136 220 20 14 17 60 -6 84 -41 44 -50 36 -158 -139 -37 -60 -71 -117 -77 -125
-5 -8 -19 -31 -30 -50 -24 -42 -30 -52 -97 -157 -29 -46 -57 -83 -62 -83 -9 0
-61 20 -116 45 -16 7 -46 18 -65 23 -139 41 -185 53 -216 58 -20 3 -46 8 -58
10 -73 16 -333 22 -436 10 -148 -17 -146 -16 -385 -84 -38 -11 -76 -22 -83
-24 -8 -2 -41 43 -83 112 -38 63 -73 122 -78 130 -6 8 -42 69 -81 135 -95 161
-100 167 -142 158z"/>
</g>
</svg>
